<?xml version="1.0" ?><svg height="32" id="svg2" version="1.1" viewBox="0 0 32 32.000001" width="32" xmlns="http://www.w3.org/2000/svg" xmlns:cc="http://creativecommons.org/ns#" xmlns:dc="http://purl.org/dc/elements/1.1/" xmlns:inkscape="http://www.inkscape.org/namespaces/inkscape" xmlns:rdf="http://www.w3.org/1999/02/22-rdf-syntax-ns#" xmlns:sodipodi="http://sodipodi.sourceforge.net/DTD/sodipodi-0.dtd" xmlns:svg="http://www.w3.org/2000/svg"><defs id="defs4"/><g id="layer1" transform="translate(0,-1020.3622)"><path d="m 16.000003,1050.3622 c 0,-1.6569 -1.343146,-3 -3,-3 l -8.5000012,0 4e-7,-13.5 8.5000008,0 c 1.656854,0 3,1.3431 3,3" id="path11603" style="fill:none;fill-rule:evenodd;stroke:#000000;stroke-width:1px;stroke-linecap:butt;stroke-linejoin:round;stroke-opacity:1"/><path d="m 16.000003,1050.3622 c 0,-1.6569 1.343146,-3 3,-3 l 8.500001,0 0,-13.5 -8.500001,0 c -1.656854,0 -3,1.3431 -3,3" id="path11605" style="fill:none;fill-rule:evenodd;stroke:#000000;stroke-width:1px;stroke-linecap:butt;stroke-linejoin:round;stroke-opacity:1"/><path d="m 16.000003,1036.3622 0,13" id="path11607" style="fill:none;fill-rule:evenodd;stroke:#000000;stroke-width:1px;stroke-linecap:butt;stroke-linejoin:miter;stroke-opacity:1"/><path d="m 2.5000021,1036.3693 -8e-7,12.994 9.5000007,0 c 1.656854,0 3.000001,0.9996 3.000001,2.4989 l 2,0 c 0,-1.4993 1.343147,-2.4989 3.000001,-2.4989 l 9.499995,0 -10e-7,-12.994" id="path11609" style="fill:none;fill-rule:evenodd;stroke:#000000;stroke-width:1px;stroke-linecap:round;stroke-linejoin:round;stroke-opacity:1"/><path d="m 15.9998,1021.8692 0,8.9859" id="path11613" style="fill:none;fill-rule:evenodd;stroke:#000000;stroke-width:0.99999976px;stroke-linecap:round;stroke-linejoin:round;stroke-opacity:1"/><path d="m 21.999801,1022.8622 -12.000002,0" id="path11615" style="fill:none;fill-rule:evenodd;stroke:#000000;stroke-width:1px;stroke-linecap:butt;stroke-linejoin:round;stroke-opacity:1"/><path d="m 13.50692,1030.8622 4.986164,0" id="path11617" style="fill:none;fill-rule:evenodd;stroke:#000000;stroke-width:0.99999982px;stroke-linecap:round;stroke-linejoin:round;stroke-opacity:1"/><g id="g11625" transform="translate(5.3122464,-2.5076034)"><g id="g11623"><path d="m 6.6875007,1030.3622 c 9e-6,1.1014 -0.890477,1.9955 -1.99187,2 -1.101416,0 -1.999152,-0.8824 -2.008064,-1.9838 l 1.9999866,-5.0086 z" id="path11619" style="opacity:1;fill:none;fill-opacity:1;stroke:#000000;stroke-width:1;stroke-linecap:round;stroke-linejoin:round;stroke-miterlimit:4;stroke-dasharray:none;stroke-opacity:1"/><path d="m 2.7851117,1030.3622 3.804844,0" id="path11621" style="fill:none;fill-rule:evenodd;stroke:#000000;stroke-width:1px;stroke-linecap:butt;stroke-linejoin:miter;stroke-opacity:1"/></g></g><g id="g11633" transform="translate(17.312247,-2.5076034)"><g id="g11631"><path d="m 6.6875007,1030.3622 c 9e-6,1.1014 -0.890477,1.9955 -1.99187,2 -1.101416,0 -1.999152,-0.8824 -2.008064,-1.9838 l 1.9999866,-5.0086 z" id="path11627" style="opacity:1;fill:none;fill-opacity:1;stroke:#000000;stroke-width:1;stroke-linecap:round;stroke-linejoin:round;stroke-miterlimit:4;stroke-dasharray:none;stroke-opacity:1"/><path d="m 2.7851117,1030.3622 3.804844,0" id="path11629" style="fill:none;fill-rule:evenodd;stroke:#000000;stroke-width:1px;stroke-linecap:butt;stroke-linejoin:miter;stroke-opacity:1"/></g></g></g></svg>