<?xml version="1.0" ?><svg height="32" id="svg2" version="1.1" viewBox="0 0 32 32.000001" width="32" xmlns="http://www.w3.org/2000/svg" xmlns:cc="http://creativecommons.org/ns#" xmlns:dc="http://purl.org/dc/elements/1.1/" xmlns:inkscape="http://www.inkscape.org/namespaces/inkscape" xmlns:rdf="http://www.w3.org/1999/02/22-rdf-syntax-ns#" xmlns:sodipodi="http://sodipodi.sourceforge.net/DTD/sodipodi-0.dtd" xmlns:svg="http://www.w3.org/2000/svg"><defs id="defs4"/><g id="layer1" transform="translate(0,-1020.3622)"><g id="g49510" transform="translate(1474.2565,606.01341)"><g id="g49488" transform="translate(-1474.2565,-605.51214)"><path d="m 2.5000001,1035.3693 -8e-7,12.994 H 12 c 1.656854,0 3.000001,0.9996 3.000001,2.4989 h 2 c 0,-1.4993 1.343147,-2.4989 3.000001,-2.4989 h 9.499995 l -1e-6,-12.994 z" id="path49478" style="fill:#f6c490;fill-opacity:1;fill-rule:evenodd;stroke:none;stroke-width:1px;stroke-linecap:round;stroke-linejoin:round;stroke-opacity:1"/><path d="m -3036.3242,-707.79492 a 0.50005,0.50005 0 0 0 -0.5,0.5 v 13.5 a 0.50005,0.50005 0 0 0 0.5,0.5 h 8.5 c 1.3866,0 2.5,1.1133 2.5,2.5 h 1 c 0,-1.3867 1.1133,-2.5 2.5,-2.5 h 8.5 a 0.50005,0.50005 0 0 0 0.5,-0.5 v -13.5 a 0.50005,0.50005 0 0 0 -0.5,-0.5 h -8.5 c -1.2778,0 -2.3889,0.69878 -3,1.72656 -0.611,-1.02822 -1.7219,-1.72656 -3,-1.72656 z" id="path49480" style="color:#000000;font-style:normal;font-variant:normal;font-weight:normal;font-stretch:normal;font-size:medium;line-height:normal;font-family:sans-serif;font-variant-ligatures:normal;font-variant-position:normal;font-variant-caps:normal;font-variant-numeric:normal;font-variant-alternates:normal;font-feature-settings:normal;text-indent:0;text-align:start;text-decoration:none;text-decoration-line:none;text-decoration-style:solid;text-decoration-color:#000000;letter-spacing:normal;word-spacing:normal;text-transform:none;writing-mode:lr-tb;direction:ltr;text-orientation:mixed;dominant-baseline:auto;baseline-shift:baseline;text-anchor:start;white-space:normal;shape-padding:0;clip-rule:nonzero;display:inline;overflow:visible;visibility:visible;opacity:1;isolation:auto;mix-blend-mode:normal;color-interpolation:sRGB;color-interpolation-filters:linearRGB;solid-color:#000000;solid-opacity:1;vector-effect:none;fill:#586597;fill-opacity:1;fill-rule:evenodd;stroke:none;stroke-width:1px;stroke-linecap:butt;stroke-linejoin:round;stroke-miterlimit:4;stroke-dasharray:none;stroke-dashoffset:0;stroke-opacity:1;color-rendering:auto;image-rendering:auto;shape-rendering:auto;text-rendering:auto;enable-background:accumulate" transform="translate(3040.825,1740.1561)"/><path d="m -3035.8242,-706.79492 h 8 c 1.3866,0 2.5,1.1133 2.5,2.5 v 11.06054 c -0.6364,-0.65206 -1.5211,-1.06054 -2.5,-1.06054 h -8 z" id="path49482" style="color:#000000;font-style:normal;font-variant:normal;font-weight:normal;font-stretch:normal;font-size:medium;line-height:normal;font-family:sans-serif;font-variant-ligatures:normal;font-variant-position:normal;font-variant-caps:normal;font-variant-numeric:normal;font-variant-alternates:normal;font-feature-settings:normal;text-indent:0;text-align:start;text-decoration:none;text-decoration-line:none;text-decoration-style:solid;text-decoration-color:#000000;letter-spacing:normal;word-spacing:normal;text-transform:none;writing-mode:lr-tb;direction:ltr;text-orientation:mixed;dominant-baseline:auto;baseline-shift:baseline;text-anchor:start;white-space:normal;shape-padding:0;clip-rule:nonzero;display:inline;overflow:visible;visibility:visible;opacity:1;isolation:auto;mix-blend-mode:normal;color-interpolation:sRGB;color-interpolation-filters:linearRGB;solid-color:#000000;solid-opacity:1;vector-effect:none;fill:#ffe4d8;fill-opacity:1;fill-rule:evenodd;stroke:none;stroke-width:1px;stroke-linecap:butt;stroke-linejoin:round;stroke-miterlimit:4;stroke-dasharray:none;stroke-dashoffset:0;stroke-opacity:1;color-rendering:auto;image-rendering:auto;shape-rendering:auto;text-rendering:auto;enable-background:accumulate" transform="translate(3040.825,1740.1561)"/><path d="m -3021.8242,-706.79492 h 8 v 12.5 h -8 c -0.979,0 -1.8636,0.40851 -2.5,1.06054 v -11.06054 c 0,-1.3867 1.1133,-2.5 2.5,-2.5 z" id="path49484" style="color:#000000;font-style:normal;font-variant:normal;font-weight:normal;font-stretch:normal;font-size:medium;line-height:normal;font-family:sans-serif;font-variant-ligatures:normal;font-variant-position:normal;font-variant-caps:normal;font-variant-numeric:normal;font-variant-alternates:normal;font-feature-settings:normal;text-indent:0;text-align:start;text-decoration:none;text-decoration-line:none;text-decoration-style:solid;text-decoration-color:#000000;letter-spacing:normal;word-spacing:normal;text-transform:none;writing-mode:lr-tb;direction:ltr;text-orientation:mixed;dominant-baseline:auto;baseline-shift:baseline;text-anchor:start;white-space:normal;shape-padding:0;clip-rule:nonzero;display:inline;overflow:visible;visibility:visible;opacity:1;isolation:auto;mix-blend-mode:normal;color-interpolation:sRGB;color-interpolation-filters:linearRGB;solid-color:#000000;solid-opacity:1;vector-effect:none;fill:#ffe4d8;fill-opacity:1;fill-rule:evenodd;stroke:none;stroke-width:1px;stroke-linecap:butt;stroke-linejoin:round;stroke-miterlimit:4;stroke-dasharray:none;stroke-dashoffset:0;stroke-opacity:1;color-rendering:auto;image-rendering:auto;shape-rendering:auto;text-rendering:auto;enable-background:accumulate" transform="translate(3040.825,1740.1561)"/><path d="M 2.4921875,1034.8613 A 0.50005,0.50005 0 0 0 2,1035.3691 v 12.9942 a 0.50005,0.50005 0 0 0 0.5,0.5 H 12 c 0.727875,0 1.368428,0.2216 1.808594,0.5762 0.440166,0.3545 0.691406,0.8215 0.691406,1.4218 a 0.50005,0.50005 0 0 0 0.5,0.5 h 2 a 0.50005,0.50005 0 0 0 0.5,-0.5 c 0,-0.6003 0.25124,-1.0673 0.691406,-1.4218 0.440166,-0.3546 1.080719,-0.5762 1.808594,-0.5762 h 9.5 a 0.50005,0.50005 0 0 0 0.5,-0.5 v -12.9942 a 0.50005,0.50005 0 1 0 -1,0 v 12.4942 h -9 c -0.928979,0 -1.789926,0.2768 -2.435547,0.7969 -0.515682,0.4153 -0.818673,1.0254 -0.947265,1.7011 h -1.234376 c -0.128592,-0.6757 -0.431583,-1.2858 -0.947265,-1.7011 -0.645621,-0.5201 -1.506568,-0.7969 -2.435547,-0.7969 H 3 v -12.4942 a 0.50005,0.50005 0 0 0 -0.5078125,-0.5078 z" id="path49486" style="color:#000000;font-style:normal;font-variant:normal;font-weight:normal;font-stretch:normal;font-size:medium;line-height:normal;font-family:sans-serif;font-variant-ligatures:normal;font-variant-position:normal;font-variant-caps:normal;font-variant-numeric:normal;font-variant-alternates:normal;font-feature-settings:normal;text-indent:0;text-align:start;text-decoration:none;text-decoration-line:none;text-decoration-style:solid;text-decoration-color:#000000;letter-spacing:normal;word-spacing:normal;text-transform:none;writing-mode:lr-tb;direction:ltr;text-orientation:mixed;dominant-baseline:auto;baseline-shift:baseline;text-anchor:start;white-space:normal;shape-padding:0;clip-rule:nonzero;display:inline;overflow:visible;visibility:visible;opacity:1;isolation:auto;mix-blend-mode:normal;color-interpolation:sRGB;color-interpolation-filters:linearRGB;solid-color:#000000;solid-opacity:1;vector-effect:none;fill:#586597;fill-opacity:1;fill-rule:evenodd;stroke:none;stroke-width:1px;stroke-linecap:round;stroke-linejoin:round;stroke-miterlimit:4;stroke-dasharray:none;stroke-dashoffset:0;stroke-opacity:1;color-rendering:auto;image-rendering:auto;shape-rendering:auto;text-rendering:auto;enable-background:accumulate"/></g><g id="g49508" style="stroke:#444166;stroke-opacity:1" transform="translate(-1474.2567,-603.51214)"><path d="m -1458.2637,-605.51367 c -0.2731,0.004 -0.4922,0.22689 -0.4922,0.5 0,0.277 -0.223,0.5 -0.5,0.5 h -5 v 1 h 5.0196 c 0.2673,0.0108 0.4804,0.22602 0.4804,0.49609 v 6.00586 c 0,0.27354 -0.218,0.49257 -0.4902,0.49805 h -1.5019 c -0.6762,-0.01 -0.6762,1.00955 0,1 1.6661,0.001 3.3215,0 4.9863,0 0.6762,0.01 0.6762,-1.00955 0,-1 h -1.5039 c -0.2722,-0.005 -0.4903,-0.22451 -0.4903,-0.49805 v -6.00586 c 0,-0.27007 0.2132,-0.48532 0.4805,-0.49609 h 5.0195 v -1 h -5 c -0.277,0 -0.5,-0.223 -0.5,-0.5 0,-0.27921 -0.2286,-0.50433 -0.5078,-0.5 z" id="path49490" style="color:#000000;font-style:normal;font-variant:normal;font-weight:normal;font-stretch:normal;font-size:medium;line-height:normal;font-family:sans-serif;font-variant-ligatures:normal;font-variant-position:normal;font-variant-caps:normal;font-variant-numeric:normal;font-variant-alternates:normal;font-feature-settings:normal;text-indent:0;text-align:start;text-decoration:none;text-decoration-line:none;text-decoration-style:solid;text-decoration-color:#000000;letter-spacing:normal;word-spacing:normal;text-transform:none;writing-mode:lr-tb;direction:ltr;text-orientation:mixed;dominant-baseline:auto;baseline-shift:baseline;text-anchor:start;white-space:normal;shape-padding:0;clip-rule:nonzero;display:inline;overflow:visible;visibility:visible;opacity:1;isolation:auto;mix-blend-mode:normal;color-interpolation:sRGB;color-interpolation-filters:linearRGB;solid-color:#000000;solid-opacity:1;vector-effect:none;fill:#586597;fill-opacity:1;fill-rule:evenodd;stroke:none;stroke-width:0.99999976px;stroke-linecap:round;stroke-linejoin:round;stroke-miterlimit:4;stroke-dasharray:none;stroke-dashoffset:0;stroke-opacity:1;color-rendering:auto;image-rendering:auto;shape-rendering:auto;text-rendering:auto;enable-background:accumulate" transform="translate(1474.2567,1623.8743)"/><g id="g49498" style="stroke:#444166;stroke-opacity:1" transform="translate(5.3124474,-5.5076025)"><g id="g49496" style="stroke:#444166;stroke-opacity:1"><path d="m -1464.2637,-604.51367 a 0.50005,0.50005 0 0 0 -0.457,0.31445 l -2,5.00977 a 0.50005,0.50005 0 0 0 -0.035,0.18945 c 0.011,1.3709 1.1394,2.47852 2.5079,2.47852 1.3709,-0.01 2.4903,-1.1291 2.4902,-2.5 a 0.50005,0.50005 0 0 0 -0.035,-0.18555 l -2,-4.99219 a 0.50005,0.50005 0 0 0 -0.4687,-0.31445 z m 0.01,1.84961 1.2598,3.14258 h -2.5137 z" id="path49492" style="color:#000000;font-style:normal;font-variant:normal;font-weight:normal;font-stretch:normal;font-size:medium;line-height:normal;font-family:sans-serif;font-variant-ligatures:normal;font-variant-position:normal;font-variant-caps:normal;font-variant-numeric:normal;font-variant-alternates:normal;font-feature-settings:normal;text-indent:0;text-align:start;text-decoration:none;text-decoration-line:none;text-decoration-style:solid;text-decoration-color:#000000;letter-spacing:normal;word-spacing:normal;text-transform:none;writing-mode:lr-tb;direction:ltr;text-orientation:mixed;dominant-baseline:auto;baseline-shift:baseline;text-anchor:start;white-space:normal;shape-padding:0;clip-rule:nonzero;display:inline;overflow:visible;visibility:visible;opacity:1;isolation:auto;mix-blend-mode:normal;color-interpolation:sRGB;color-interpolation-filters:linearRGB;solid-color:#000000;solid-opacity:1;vector-effect:none;fill:#586597;fill-opacity:1;fill-rule:nonzero;stroke:none;stroke-width:1;stroke-linecap:round;stroke-linejoin:round;stroke-miterlimit:4;stroke-dasharray:none;stroke-dashoffset:0;stroke-opacity:1;color-rendering:auto;image-rendering:auto;shape-rendering:auto;text-rendering:auto;enable-background:accumulate" transform="translate(1468.9443,1629.3819)"/><path d="m -1465.6445,-598.52148 h 2.7793 c -0.2008,0.58005 -0.7307,0.99654 -1.3828,1 -0.6588,0 -1.1941,-0.41661 -1.3965,-1 z" id="path49494" style="color:#000000;font-style:normal;font-variant:normal;font-weight:normal;font-stretch:normal;font-size:medium;line-height:normal;font-family:sans-serif;font-variant-ligatures:normal;font-variant-position:normal;font-variant-caps:normal;font-variant-numeric:normal;font-variant-alternates:normal;font-feature-settings:normal;text-indent:0;text-align:start;text-decoration:none;text-decoration-line:none;text-decoration-style:solid;text-decoration-color:#000000;letter-spacing:normal;word-spacing:normal;text-transform:none;writing-mode:lr-tb;direction:ltr;text-orientation:mixed;dominant-baseline:auto;baseline-shift:baseline;text-anchor:start;white-space:normal;shape-padding:0;clip-rule:nonzero;display:inline;overflow:visible;visibility:visible;opacity:1;isolation:auto;mix-blend-mode:normal;color-interpolation:sRGB;color-interpolation-filters:linearRGB;solid-color:#000000;solid-opacity:1;vector-effect:none;fill:#fbb490;fill-opacity:1;fill-rule:nonzero;stroke:none;stroke-width:1;stroke-linecap:round;stroke-linejoin:round;stroke-miterlimit:4;stroke-dasharray:none;stroke-dashoffset:0;stroke-opacity:1;color-rendering:auto;image-rendering:auto;shape-rendering:auto;text-rendering:auto;enable-background:accumulate" transform="translate(1468.9443,1629.3819)"/></g></g><g id="g49506" style="stroke:#444166;stroke-opacity:1" transform="translate(17.312448,-5.5076025)"><g id="g49504" style="stroke:#444166;stroke-opacity:1"><path d="m -1452.2637,-604.51367 a 0.50005,0.50005 0 0 0 -0.457,0.31445 l -2,5.00977 a 0.50005,0.50005 0 0 0 -0.035,0.18945 c 0.011,1.3709 1.1394,2.47852 2.5079,2.47852 1.3709,-0.01 2.4903,-1.1291 2.4902,-2.5 a 0.50005,0.50005 0 0 0 -0.035,-0.18555 l -2,-4.99219 a 0.50005,0.50005 0 0 0 -0.4687,-0.31445 z m 0.01,1.84961 1.2598,3.14258 h -2.5137 z" id="path49500" style="color:#000000;font-style:normal;font-variant:normal;font-weight:normal;font-stretch:normal;font-size:medium;line-height:normal;font-family:sans-serif;font-variant-ligatures:normal;font-variant-position:normal;font-variant-caps:normal;font-variant-numeric:normal;font-variant-alternates:normal;font-feature-settings:normal;text-indent:0;text-align:start;text-decoration:none;text-decoration-line:none;text-decoration-style:solid;text-decoration-color:#000000;letter-spacing:normal;word-spacing:normal;text-transform:none;writing-mode:lr-tb;direction:ltr;text-orientation:mixed;dominant-baseline:auto;baseline-shift:baseline;text-anchor:start;white-space:normal;shape-padding:0;clip-rule:nonzero;display:inline;overflow:visible;visibility:visible;opacity:1;isolation:auto;mix-blend-mode:normal;color-interpolation:sRGB;color-interpolation-filters:linearRGB;solid-color:#000000;solid-opacity:1;vector-effect:none;fill:#586597;fill-opacity:1;fill-rule:nonzero;stroke:none;stroke-width:1;stroke-linecap:round;stroke-linejoin:round;stroke-miterlimit:4;stroke-dasharray:none;stroke-dashoffset:0;stroke-opacity:1;color-rendering:auto;image-rendering:auto;shape-rendering:auto;text-rendering:auto;enable-background:accumulate" transform="translate(1456.9443,1629.3819)"/><path d="m -1453.6445,-598.52148 h 2.7793 c -0.2008,0.58005 -0.7307,0.99654 -1.3828,1 -0.6588,0 -1.1941,-0.41661 -1.3965,-1 z" id="path49502" style="color:#000000;font-style:normal;font-variant:normal;font-weight:normal;font-stretch:normal;font-size:medium;line-height:normal;font-family:sans-serif;font-variant-ligatures:normal;font-variant-position:normal;font-variant-caps:normal;font-variant-numeric:normal;font-variant-alternates:normal;font-feature-settings:normal;text-indent:0;text-align:start;text-decoration:none;text-decoration-line:none;text-decoration-style:solid;text-decoration-color:#000000;letter-spacing:normal;word-spacing:normal;text-transform:none;writing-mode:lr-tb;direction:ltr;text-orientation:mixed;dominant-baseline:auto;baseline-shift:baseline;text-anchor:start;white-space:normal;shape-padding:0;clip-rule:nonzero;display:inline;overflow:visible;visibility:visible;opacity:1;isolation:auto;mix-blend-mode:normal;color-interpolation:sRGB;color-interpolation-filters:linearRGB;solid-color:#000000;solid-opacity:1;vector-effect:none;fill:#fbb490;fill-opacity:1;fill-rule:nonzero;stroke:none;stroke-width:1;stroke-linecap:round;stroke-linejoin:round;stroke-miterlimit:4;stroke-dasharray:none;stroke-dashoffset:0;stroke-opacity:1;color-rendering:auto;image-rendering:auto;shape-rendering:auto;text-rendering:auto;enable-background:accumulate" transform="translate(1456.9443,1629.3819)"/></g></g></g></g></g></svg>